<svg xmlns="http://www.w3.org/2000/svg" enable-background="new 0 0 24 24" viewBox="0 0 24 24" id="bootstrap"><path d="M21.375,24H2.625C1.178,24,0,22.822,0,21.375V2.625C0,1.178,1.178,0,2.625,0h18.75C22.822,0,24,1.178,24,2.625v18.75C24,22.822,22.822,24,21.375,24z M2.625,1.5C2.005,1.5,1.5,2.005,1.5,2.625v18.75c0,0.62,0.505,1.125,1.125,1.125h18.75c0.62,0,1.125-0.505,1.125-1.125V2.625c0-0.62-0.505-1.125-1.125-1.125H2.625z"></path><path d="M12.644,19.5H6.241c-0.414,0-0.75-0.336-0.75-0.75V5.25c0-0.414,0.336-0.75,0.75-0.75h6.771c1.416,0,2.577,0.329,3.452,0.977c0.953,0.706,1.437,1.755,1.437,3.12c0,0.837-0.221,1.571-0.655,2.181c-0.143,0.2-0.306,0.385-0.487,0.554c0.377,0.24,0.696,0.543,0.955,0.906c0.527,0.741,0.795,1.661,0.795,2.737c0,0.542-0.095,1.071-0.282,1.576c-0.006,0.075-0.022,0.148-0.053,0.218c-0.248,0.582-0.645,1.097-1.147,1.489c-0.504,0.396-1.126,0.706-1.848,0.919C14.464,19.391,13.61,19.5,12.644,19.5z M6.991,18h5.652c0.819,0,1.528-0.088,2.106-0.262c0.542-0.16,0.996-0.383,1.353-0.663c0.256-0.2,0.466-0.451,0.615-0.733c0.009-0.063,0.025-0.126,0.052-0.188c0.159-0.375,0.239-0.772,0.239-1.181c0-0.757-0.174-1.385-0.517-1.866c-0.315-0.443-0.813-0.736-1.479-0.872c-0.35-0.071-0.601-0.378-0.601-0.735c0-0.305,0.185-0.624,0.467-0.739c0.501-0.205,0.887-0.493,1.146-0.856c0.253-0.354,0.376-0.783,0.376-1.309c0-0.887-0.264-1.496-0.829-1.914C14.961,6.229,14.101,6,13.013,6H6.991V18z"></path><path d="M12.966 16.977H8.745c-.414 0-.75-.336-.75-.75V12.78c0-.414.336-.75.75-.75h4.209c.852 0 1.521.172 2.044.525.032.017.063.036.094.058.588.426.903 1.066.913 1.853 0 .797-.311 1.451-.898 1.9C14.577 16.771 13.857 16.977 12.966 16.977zM9.495 15.477h3.471c.554 0 .967-.102 1.229-.303.145-.111.31-.289.31-.699-.004-.338-.122-.505-.241-.606-.024-.014-.048-.029-.07-.046-.263-.194-.68-.293-1.239-.293H9.495V15.477zM12.382 11H8.745c-.414 0-.75-.336-.75-.75v-3c0-.414.336-.75.75-.75h3.637c.755 0 1.366.158 1.816.47.366.252.805.766.805 1.774 0 .73-.293 1.328-.847 1.729-.019.013-.037.026-.056.037C13.633 10.831 13.04 11 12.382 11zM9.495 9.5h2.887c.37 0 .669-.082.89-.242.013-.009.025-.018.038-.026.104-.084.193-.209.193-.489 0-.161-.021-.445-.157-.54C13.211 8.11 12.935 8 12.382 8H9.495V9.5z"></path></svg>