<svg xmlns="http://www.w3.org/2000/svg" viewBox="0 0 80 80" id="web-programming"><path d="M69 5H11c-3.309 0-6 2.691-6 6v47c0 3.309 2.691 6 6 6h18.753c-.577 2.834-2.205 5.28-4.975 7.416A2 2 0 0 0 26 75h28a2 2 0 0 0 1.275-3.541c-3.07-2.54-4.766-4.997-5.186-7.459H69c3.309 0 6-2.691 6-6V11c0-3.309-2.691-6-6-6zM11 9h58c1.103 0 2 .897 2 2v39H9V11c0-1.103.897-2 2-2zm38.173 62h-18.33c1.612-2.105 2.612-4.445 2.99-7H46.03c.263 2.39 1.314 4.73 3.143 7zM69 60H11c-1.103 0-2-.897-2-2v-4h62v4c0 1.103-.897 2-2 2z"></path><path d="M42 55h-4a2 2 0 0 0 0 4h4a2 2 0 0 0 0-4zm15.349-25.173a1.997 1.997 0 0 0 2.802.38l6.06-4.616a2.001 2.001 0 0 0 0-3.182l-6.06-4.615a1.998 1.998 0 0 0-2.802.379c-.67.879-.5 2.134.379 2.803L61.699 24l-3.971 3.024a1.999 1.999 0 0 0-.38 2.803zM36 24c0 .624.292 1.213.788 1.59l6.06 4.616a1.997 1.997 0 0 0 2.803-.379c.67-.879.5-2.134-.379-2.803L41.301 24l3.971-3.024a1.999 1.999 0 0 0 .38-2.803 1.998 1.998 0 0 0-2.803-.38l-6.06 4.616A2.001 2.001 0 0 0 36 24zm11.445 11.893a2.001 2.001 0 0 0 2.538-1.247l6.819-20a2 2 0 0 0-3.785-1.292l-6.819 20a2 2 0 0 0 1.247 2.539zM15 45h47a2 2 0 0 0 0-4H15a2 2 0 0 0 0 4zm0-9h19a2 2 0 0 0 0-4H15a2 2 0 0 0 0 4zm0-9h15a2 2 0 0 0 0-4H15a2 2 0 0 0 0 4zm0-9h21a2 2 0 0 0 0-4H15a2 2 0 0 0 0 4z"></path></svg>