<svg xmlns="http://www.w3.org/2000/svg" width="140" height="140" id="wordpress"><path fill="#fff" d="M69.998 132.375c-34.443 0-62.381-27.922-62.381-62.369 0-34.455 27.938-62.381 62.381-62.381 34.453 0 62.385 27.926 62.385 62.381 0 34.447-27.932 62.369-62.385 62.369z"></path><path fill="#eaf4f9" d="M132.383 70.006c0 34.447-27.932 62.369-62.385 62.369-34.443 0-62.381-27.922-62.381-62.369"></path><path fill="none" stroke="#33363a" stroke-linecap="round" stroke-linejoin="round" stroke-miterlimit="10" stroke-width="3" d="M69.998 132.375c-34.443 0-62.381-27.922-62.381-62.369 0-34.455 27.938-62.381 62.381-62.381 34.453 0 62.385 27.926 62.385 62.381 0 34.447-27.932 62.369-62.385 62.369z"></path><path fill="#33363a" d="M24.615 69.998c0 17.965 10.439 33.49 25.578 40.844L28.543 51.53a45.266 45.266 0 0 0-3.928 18.468zM70.797 73.969 57.18 113.537A45.305 45.305 0 0 0 70 115.385c5.283 0 10.354-.912 15.07-2.57-.117-.197-.23-.4-.322-.627L70.797 73.969z"></path><path fill="#33363a" d="M100.641 67.709c0-5.609-2.018-9.494-3.742-12.516-2.303-3.742-4.461-6.906-4.461-10.645 0-4.172 3.164-8.055 7.621-8.055.203 0 .393.025.584.035C92.574 29.133 81.814 24.615 70 24.615c-15.857 0-29.805 8.137-37.918 20.455a97.99 97.99 0 0 0 2.92.055c4.744 0 12.098-.576 12.098-.576 2.445-.145 2.73 3.451.287 3.738 0 0-2.459.289-5.193.432l16.525 49.158 9.934-29.785-7.066-19.373c-2.447-.143-4.764-.432-4.764-.432-2.447-.145-2.16-3.883.289-3.738 0 0 7.492.576 11.953.576 4.746 0 12.096-.576 12.096-.576 2.447-.145 2.732 3.451.287 3.738 0 0-2.461.289-5.191.432l16.4 48.785 4.531-15.123c1.955-6.279 3.453-10.787 3.453-14.672zM110.133 52.893c0 4.604-.863 9.781-3.453 16.256l-13.861 40.078c13.492-7.865 22.566-22.486 22.566-39.227a45.166 45.166 0 0 0-5.559-21.775c.195 1.447.307 2.994.307 4.668z"></path></svg>